<svg version="1.1" id="Layer_1" xmlns="http://www.w3.org/2000/svg" xmlns:xlink="http://www.w3.org/1999/xlink" x="0px" y="0px"
	 width="100%" viewBox="0 0 311 126" enable-background="new 0 0 311 126" xml:space="preserve">
<path fill="#FCFCFC" opacity="1.000000" stroke="none" 
	d="
M245.000000,127.000000 
	C163.333359,127.000000 82.166718,127.000000 1.000054,127.000000 
	C1.000036,85.000038 1.000036,43.000072 1.000018,1.000083 
	C104.666595,1.000055 208.333191,1.000055 311.999817,1.000028 
	C311.999878,42.999920 311.999878,84.999840 311.999939,126.999878 
	C289.833344,127.000000 267.666656,127.000000 245.000000,127.000000 
M113.500000,22.975412 
	C89.670631,22.976019 65.841194,22.942820 42.011925,22.991014 
	C29.459044,23.016403 20.993126,31.447620 20.925800,43.968330 
	C20.855909,56.965816 20.869484,69.964081 20.915215,82.961761 
	C20.960423,95.810860 29.341188,104.180885 42.264027,104.185211 
	C117.751541,104.210495 193.239075,104.210342 268.726593,104.185371 
	C281.637634,104.181099 290.036499,95.793793 290.084839,82.955002 
	C290.131897,70.457253 290.110138,57.959141 290.088257,45.461246 
	C290.062836,30.928757 282.068573,22.980507 267.474701,22.978464 
	C216.483139,22.971329 165.491562,22.975519 113.500000,22.975412 
z"/>
<path fill="#696969" opacity="1.000000" stroke="none" 
	d="
M114.000000,22.975409 
	C165.491562,22.975519 216.483139,22.971329 267.474701,22.978464 
	C282.068573,22.980507 290.062836,30.928757 290.088257,45.461246 
	C290.110138,57.959141 290.131897,70.457253 290.084839,82.955002 
	C290.036499,95.793793 281.637634,104.181099 268.726593,104.185371 
	C193.239075,104.210342 117.751541,104.210495 42.264027,104.185211 
	C29.341188,104.180885 20.960423,95.810860 20.915215,82.961761 
	C20.869484,69.964081 20.855909,56.965816 20.925800,43.968330 
	C20.993126,31.447620 29.459044,23.016403 42.011925,22.991014 
	C65.841194,22.942820 89.670631,22.976019 114.000000,22.975409 
M204.500000,101.997360 
	C225.664597,101.997322 246.829315,102.036621 267.993774,101.982277 
	C280.438019,101.950333 287.917908,94.499786 287.983002,82.117027 
	C288.047821,69.785263 288.038269,57.452717 287.985901,45.120834 
	C287.931793,32.381107 280.541016,25.017765 267.726837,25.013872 
	C192.900955,24.991144 118.075066,24.990723 43.249184,25.014278 
	C30.419830,25.018316 23.069256,32.358486 23.013718,45.130581 
	C22.962269,56.962517 22.995905,68.794861 23.004396,80.627007 
	C23.014696,94.978401 30.072153,101.994125 44.515816,101.995438 
	C97.510544,102.000259 150.505280,101.997353 204.500000,101.997360 
z"/>
<path fill="#FDFDFD" opacity="1.000000" stroke="none" 
	d="
M204.000000,101.997360 
	C150.505280,101.997353 97.510544,102.000259 44.515816,101.995438 
	C30.072153,101.994125 23.014696,94.978401 23.004396,80.627007 
	C22.995905,68.794861 22.962269,56.962517 23.013718,45.130581 
	C23.069256,32.358486 30.419830,25.018316 43.249184,25.014278 
	C118.075066,24.990723 192.900955,24.991144 267.726837,25.013872 
	C280.541016,25.017765 287.931793,32.381107 287.985901,45.120834 
	C288.038269,57.452717 288.047821,69.785263 287.983002,82.117027 
	C287.917908,94.499786 280.438019,101.950333 267.993774,101.982277 
	C246.829315,102.036621 225.664597,101.997322 204.000000,101.997360 
M220.500000,27.014048 
	C161.172424,27.014130 101.844864,27.006739 42.517292,27.021158 
	C31.799540,27.023762 25.045065,33.770294 25.021027,44.456299 
	C24.992537,57.121677 24.994623,69.787209 25.020311,82.452599 
	C25.042091,93.191216 31.757051,99.966080 42.426834,99.978027 
	C64.924629,100.003220 87.422485,99.985954 109.920311,99.985962 
	C162.581894,99.985977 215.243469,99.995071 267.905060,99.978348 
	C278.744293,99.974899 285.801239,93.666855 285.938446,83.517395 
	C286.118652,70.187790 286.106506,56.852379 285.941681,43.522381 
	C285.821442,33.798050 278.756378,27.050985 268.995392,27.025661 
	C253.163696,26.984585 237.331802,27.014267 220.500000,27.014048 
z"/>
<path fill="#C9C9C9" opacity="1.000000" stroke="none" 
	d="
M221.000000,27.014061 
	C237.331802,27.014267 253.163696,26.984585 268.995392,27.025661 
	C278.756378,27.050985 285.821442,33.798050 285.941681,43.522381 
	C286.106506,56.852379 286.118652,70.187790 285.938446,83.517395 
	C285.801239,93.666855 278.744293,99.974899 267.905060,99.978348 
	C215.243469,99.995071 162.581894,99.985977 109.920311,99.985962 
	C87.422485,99.985954 64.924629,100.003220 42.426834,99.978027 
	C31.757051,99.966080 25.042091,93.191216 25.020311,82.452599 
	C24.994623,69.787209 24.992537,57.121677 25.021027,44.456299 
	C25.045065,33.770294 31.799540,27.023762 42.517292,27.021158 
	C101.844864,27.006739 161.172424,27.014130 221.000000,27.014061 
M275.897552,35.321815 
	C274.927032,34.887951 273.956512,34.454086 272.671631,33.515812 
	C272.114838,33.357479 271.558014,33.199146 270.064331,33.006031 
	C194.422318,32.999615 118.780296,32.992489 43.138275,32.992611 
	C41.807941,32.992611 40.338558,32.738941 39.181736,33.210827 
	C37.664768,33.829617 36.394341,35.052792 34.548985,36.194347 
	C34.371170,36.468502 34.193356,36.742653 33.332676,37.054893 
	C32.506973,38.694942 31.681267,40.334995 30.871138,42.912788 
	C30.882919,48.268951 30.894699,53.625118 30.864948,59.920223 
	C30.856894,62.381691 30.775784,64.845505 30.854841,67.304176 
	C31.069336,73.975037 31.351744,80.643723 31.700945,87.880981 
	C31.745520,88.266586 31.790092,88.652184 31.868614,89.778526 
	C33.377781,94.477325 36.906345,95.975830 41.484951,95.975029 
	C117.570801,95.961708 193.656662,95.978172 269.742401,95.882515 
	C271.495728,95.880310 273.247498,94.654671 275.669983,93.956886 
	C276.466675,93.020935 277.263367,92.084984 278.712982,90.674477 
	C279.204865,88.672432 280.060913,86.681374 280.121643,84.666328 
	C280.318939,78.118271 280.225159,71.561440 280.744019,64.347000 
	C280.824310,57.053127 281.176208,49.745159 280.799042,42.475018 
	C280.701508,40.595112 278.317322,38.833836 276.805145,36.548969 
	C276.530792,36.371227 276.256409,36.193481 275.897552,35.321815 
z"/>
<path fill="#AFAFAF" opacity="1.000000" stroke="none" 
	d="
M278.060059,91.149033 
	C277.263367,92.084984 276.466675,93.020935 275.316132,93.679611 
	C273.950623,93.282722 272.938995,93.163094 271.465759,93.018356 
	C195.318863,92.994034 119.633583,92.996078 43.948303,92.987358 
	C42.288464,92.987167 40.628635,92.863914 38.766243,92.558182 
	C36.783607,91.184715 35.003532,90.051125 33.157913,88.599274 
	C33.079021,87.847961 33.065674,87.414925 33.515923,86.988449 
	C112.966660,86.996674 191.953812,86.989967 270.940918,87.046646 
	C272.986267,87.048111 275.031097,87.742844 277.065155,88.452240 
	C277.389435,89.576492 277.724731,90.362762 278.060059,91.149033 
z"/>
<path fill="#8F8F8F" opacity="1.000000" stroke="none" 
	d="
M271.927338,93.043472 
	C272.938995,93.163094 273.950623,93.282722 274.981140,93.701019 
	C273.247498,94.654671 271.495728,95.880310 269.742401,95.882515 
	C193.656662,95.978172 117.570801,95.961708 41.484951,95.975029 
	C36.906345,95.975830 33.377781,94.477325 32.200089,89.383102 
	C32.762192,88.964294 32.992821,88.940918 33.223454,88.917542 
	C35.003532,90.051125 36.783607,91.184715 39.009926,92.919724 
	C40.922493,93.697296 42.388760,94.027077 43.855141,94.027573 
	C118.326210,94.052574 192.797287,94.055588 267.268341,94.007462 
	C268.821533,94.006462 270.374359,93.378792 271.927338,93.043472 
z"/>
<path fill="#ABABAB" opacity="1.000000" stroke="none" 
	d="
M35.017876,36.016026 
	C36.394341,35.052792 37.664768,33.829617 39.181736,33.210827 
	C40.338558,32.738941 41.807941,32.992611 43.138275,32.992611 
	C118.780296,32.992489 194.422318,32.999615 270.532715,33.248253 
	C271.001068,33.490479 271.001221,33.941036 270.532990,33.967850 
	C196.109497,34.000805 122.154160,33.972534 48.199104,34.099411 
	C43.807579,34.106945 39.418190,35.359718 35.023026,36.027809 
	C35.018246,36.022575 35.017876,36.016026 35.017876,36.016026 
z"/>
<path fill="#AAAAAA" opacity="1.000000" stroke="none" 
	d="
M276.983490,37.018066 
	C278.317322,38.833836 280.701508,40.595112 280.799042,42.475018 
	C281.176208,49.745159 280.824310,57.053127 280.203979,64.689995 
	C279.473053,65.050156 279.282135,65.067322 279.054688,64.803772 
	C278.993469,64.336380 278.968750,64.149696 278.953308,63.500748 
	C278.943390,58.688805 278.924225,54.339119 278.932159,49.560455 
	C278.687408,46.700829 278.415558,44.270184 278.123413,41.481739 
	C277.722137,39.760376 277.341187,38.396812 276.966431,37.027832 
	C276.972656,37.022411 276.983490,37.018070 276.983490,37.018066 
z"/>
<path fill="#898989" opacity="1.000000" stroke="none" 
	d="
M279.091187,65.084496 
	C279.282135,65.067322 279.473053,65.050156 279.953705,65.020485 
	C280.225159,71.561440 280.318939,78.118271 280.121643,84.666328 
	C280.060913,86.681374 279.204865,88.672432 278.386536,90.911758 
	C277.724731,90.362762 277.389435,89.576492 277.325470,88.218201 
	C278.025757,86.093559 278.454712,84.540932 278.918640,82.589783 
	C278.928802,81.125038 278.903992,80.058815 278.908875,78.660095 
	C278.917847,77.883499 278.897125,77.439407 278.913208,76.662308 
	C278.924774,75.883980 278.899506,75.438644 278.910919,74.577103 
	C278.923889,72.768402 278.900177,71.375916 278.912720,69.575142 
	C278.996368,67.806076 279.043793,66.445282 279.091187,65.084496 
z"/>
<path fill="#898989" opacity="1.000000" stroke="none" 
	d="
M31.607224,87.313271 
	C31.351744,80.643723 31.069336,73.975037 30.854841,67.304176 
	C30.775784,64.845505 30.856894,62.381691 31.124733,59.460838 
	C31.384520,59.001457 31.860975,59.014217 31.909019,59.425446 
	C32.002174,61.215637 32.047283,62.594597 32.049622,64.390213 
	C32.045471,66.199532 32.084087,67.592178 32.078808,69.384674 
	C32.064369,70.854668 32.093830,71.924835 32.083443,73.368690 
	C32.069862,74.492287 32.096130,75.242188 32.085457,76.366287 
	C32.072620,77.491180 32.096729,78.241882 32.082932,79.391327 
	C32.068783,80.856140 32.092545,81.922218 32.085136,83.377365 
	C32.082081,84.798447 32.110199,85.830460 32.008644,86.978836 
	C31.878973,87.095184 31.607224,87.313271 31.607224,87.313271 
z"/>
<path fill="#8F8F8F" opacity="1.000000" stroke="none" 
	d="
M31.860973,59.014217 
	C31.860975,59.014217 31.384520,59.001457 31.145500,58.991371 
	C30.894699,53.625118 30.882919,48.268951 31.135668,42.449253 
	C31.580954,41.989651 31.761709,41.993580 31.955730,42.447094 
	C32.026779,45.590908 32.084557,48.285137 32.086361,51.423126 
	C31.973915,54.249329 31.917444,56.631771 31.860973,59.014217 
z"/>
<path fill="#ABABAB" opacity="1.000000" stroke="none" 
	d="
M31.942465,41.997513 
	C31.761709,41.993580 31.580954,41.989651 31.127880,41.980381 
	C31.681267,40.334995 32.506973,38.694942 33.681412,37.040024 
	C34.030151,37.025158 34.045200,37.037975 33.988678,37.384773 
	C33.569901,39.086151 33.207649,40.440735 32.620358,41.848957 
	C32.395317,41.902599 31.942465,41.997513 31.942465,41.997513 
z"/>
<path fill="#AAAAAA" opacity="1.000000" stroke="none" 
	d="
M272.985992,34.020226 
	C273.956512,34.454086 274.927032,34.887951 275.942688,35.668835 
	C275.987793,36.015854 275.978088,36.025990 275.664551,35.982735 
	C274.555237,35.309456 273.759430,34.679440 272.969543,34.041439 
	C272.975433,34.033459 272.985992,34.020229 272.985992,34.020226 
z"/>
<path fill="#898989" opacity="1.000000" stroke="none" 
	d="
M33.157913,88.599274 
	C32.992821,88.940918 32.762192,88.964294 32.183113,89.012726 
	C31.790092,88.652184 31.745520,88.266586 31.654083,87.597122 
	C31.607224,87.313271 31.878973,87.095184 32.236443,87.008118 
	C32.593910,86.921059 33.052322,86.981880 33.052322,86.981880 
	C33.065674,87.414925 33.079021,87.847961 33.157913,88.599274 
z"/>
<path fill="#AAAAAA" opacity="1.000000" stroke="none" 
	d="
M271.001221,33.941036 
	C271.001221,33.941036 271.001068,33.490479 271.001160,33.265644 
	C271.558014,33.199146 272.114838,33.357479 272.828796,33.768021 
	C272.985992,34.020229 272.975433,34.033459 272.641968,34.047577 
	C271.872772,34.021473 271.436981,33.981255 271.001221,33.941036 
z"/>
<path fill="#AAAAAA" opacity="1.000000" stroke="none" 
	d="
M275.984924,36.015793 
	C276.256409,36.193481 276.530792,36.371227 276.894318,36.783520 
	C276.983490,37.018070 276.972656,37.022411 276.741760,36.927589 
	C276.228119,36.633270 276.050537,36.364342 275.978088,36.025990 
	C275.978088,36.025990 275.987793,36.015854 275.984924,36.015793 
z"/>
<path fill="#ABABAB" opacity="1.000000" stroke="none" 
	d="
M34.022846,37.020981 
	C34.193356,36.742653 34.371170,36.468502 34.783432,36.105186 
	C35.017876,36.016026 35.018246,36.022575 34.927273,36.253716 
	C34.641251,36.767403 34.377548,36.951775 34.045200,37.037975 
	C34.045200,37.037975 34.030151,37.025158 34.022846,37.020981 
z"/>
<path fill="#B4B4B4" opacity="1.000000" stroke="none" 
	d="
M33.515923,86.988449 
	C33.052322,86.981880 32.593910,86.921059 32.366112,86.891769 
	C32.110199,85.830460 32.082081,84.798447 32.502136,83.379898 
	C38.066113,82.662346 43.181644,82.048157 48.297768,82.043190 
	C114.883499,81.978554 181.469376,81.958344 248.055054,82.044449 
	C258.331665,82.057739 268.607513,82.658974 278.883667,82.988312 
	C278.454712,84.540932 278.025757,86.093559 277.336487,87.880226 
	C275.031097,87.742844 272.986267,87.048111 270.940918,87.046646 
	C191.953812,86.989967 112.966660,86.996674 33.515923,86.988449 
z"/>
<path fill="#616161" opacity="1.000000" stroke="none" 
	d="
M271.465759,93.018364 
	C270.374359,93.378792 268.821533,94.006462 267.268341,94.007462 
	C192.797287,94.055588 118.326210,94.052574 43.855141,94.027573 
	C42.388760,94.027077 40.922493,93.697296 39.212486,93.159599 
	C40.628635,92.863914 42.288464,92.987167 43.948303,92.987358 
	C119.633583,92.996078 195.318863,92.994034 271.465759,93.018364 
z"/>
<path fill="#E0E0E0" opacity="1.000000" stroke="none" 
	d="
M33.988678,37.384773 
	C34.377548,36.951775 34.641251,36.767403 34.932053,36.258949 
	C39.418190,35.359718 43.807579,34.106945 48.199104,34.099411 
	C122.154160,33.972534 196.109497,34.000805 270.532990,33.967850 
	C271.436981,33.981255 271.872772,34.021473 272.636078,34.055557 
	C273.759430,34.679440 274.555237,35.309456 275.664551,35.982735 
	C276.050537,36.364342 276.228119,36.633270 276.735535,36.933010 
	C277.341187,38.396812 277.722137,39.760376 277.871490,41.803436 
	C275.760864,42.988529 273.882263,43.934490 272.002777,43.936283 
	C194.381851,44.010384 116.760803,44.017017 39.139946,43.907372 
	C37.040771,43.904404 34.943539,42.530121 32.845398,41.795315 
	C33.207649,40.440735 33.569901,39.086151 33.988678,37.384773 
z"/>
<path fill="#DBDBDB" opacity="1.000000" stroke="none" 
	d="
M32.620358,41.848957 
	C34.943539,42.530121 37.040771,43.904404 39.139946,43.907372 
	C116.760803,44.017017 194.381851,44.010384 272.002777,43.936283 
	C273.882263,43.934490 275.760864,42.988529 277.891785,42.161236 
	C278.415558,44.270184 278.687408,46.700829 278.527588,49.623283 
	C270.869598,50.410118 263.639404,50.637867 256.419495,51.046413 
	C254.562347,51.151505 252.737442,51.825943 250.606247,52.197697 
	C249.921799,52.175148 249.528824,52.193733 248.848221,51.881691 
	C241.811523,51.374168 235.062622,51.130299 228.313126,51.111919 
	C227.539337,51.109814 226.762131,52.367516 225.584320,52.983330 
	C223.846451,53.058769 222.510742,53.191967 221.066727,52.925316 
	C218.299576,50.184566 215.839630,49.683266 213.429230,53.186165 
	C211.414688,53.160107 209.795425,53.244598 208.070679,52.935692 
	C205.615372,50.454266 203.436874,49.604202 201.568207,53.273422 
	C200.809097,52.988400 200.380569,52.811779 199.805359,52.470154 
	C199.408524,52.122032 199.129013,52.044056 198.407013,52.087955 
	C195.338501,52.438522 192.683105,52.772350 189.977798,52.768978 
	C188.214310,49.811230 187.109482,51.432598 185.731277,53.000179 
	C185.289780,53.014450 185.113327,53.024529 184.474792,52.993553 
	C178.687134,53.004017 173.361526,53.055534 167.965668,52.740673 
	C165.518982,49.815380 163.610123,50.676064 161.469055,53.132084 
	C156.369171,53.097229 151.727600,53.120617 146.907104,52.878113 
	C145.822098,52.730629 144.916000,52.849037 143.542755,52.951805 
	C138.064484,52.988876 133.053345,53.041580 127.859619,52.830978 
	C126.776459,52.727219 125.875900,52.886765 124.511208,53.000900 
	C118.710030,53.006012 113.372978,53.056534 107.965668,52.740696 
	C105.519211,49.815334 103.610390,50.676151 101.468979,53.131699 
	C96.366318,53.100811 91.722176,53.128181 86.884842,52.796234 
	C84.866272,51.958569 83.043724,51.077702 81.215065,51.064800 
	C64.858109,50.949364 48.500061,50.986870 32.142338,50.979370 
	C32.084557,48.285137 32.026779,45.590908 31.955730,42.447094 
	C31.942465,41.997513 32.395317,41.902599 32.620358,41.848957 
z"/>
<path fill="#D5D5D6" opacity="1.000000" stroke="none" 
	d="
M250.897720,52.238831 
	C252.737442,51.825943 254.562347,51.151505 256.419495,51.046413 
	C263.639404,50.637867 270.869598,50.410118 278.500488,50.052269 
	C278.924225,54.339119 278.943390,58.688805 278.561340,63.507652 
	C273.901978,63.316975 269.636963,62.697037 265.389923,61.971992 
	C264.179108,61.765285 263.020416,61.253353 261.559937,60.623016 
	C252.395111,59.579151 252.395111,59.579151 250.897720,52.238831 
z"/>
<path fill="#C3C4C4" opacity="1.000000" stroke="none" 
	d="
M261.837830,60.881386 
	C263.020416,61.253353 264.179108,61.765285 265.389923,61.971992 
	C269.636963,62.697037 273.901978,63.316975 278.552094,63.969913 
	C278.968750,64.149696 278.993469,64.336380 279.054688,64.803772 
	C279.043793,66.445282 278.996368,67.806076 278.456299,69.581200 
	C270.672302,69.659599 263.380981,69.323654 256.009308,68.672363 
	C256.289490,67.372780 256.412140,66.177986 257.058960,65.447098 
	C258.513916,63.803062 260.228760,62.389030 261.837830,60.881386 
z"/>
<path fill="#BABABA" opacity="1.000000" stroke="none" 
	d="
M32.120838,78.992584 
	C32.096729,78.241882 32.072620,77.491180 32.541847,76.369171 
	C38.839500,75.998581 44.646866,76.109459 50.446724,75.949104 
	C52.984577,75.878922 55.507095,75.254272 58.287125,74.783142 
	C59.027973,74.464104 59.518276,74.243332 60.195541,74.354660 
	C63.625027,74.770226 66.867546,74.853683 70.407059,74.933014 
	C71.099564,74.908279 71.495071,74.887680 72.184792,75.182655 
	C77.374985,75.302223 82.270981,75.106224 87.560425,74.936317 
	C89.267502,74.957748 90.581123,74.953094 92.253632,75.104683 
	C94.768005,75.132950 96.923492,75.004959 99.498352,74.910210 
	C101.869858,74.883110 103.822006,74.822769 105.949837,75.014099 
	C106.766167,75.148476 107.406815,75.031166 108.510872,74.950867 
	C114.577515,74.896935 120.180740,74.805984 125.969208,74.987183 
	C126.841713,75.077538 127.528984,74.895752 128.609100,74.793243 
	C130.595428,74.823540 132.188950,74.774544 134.070709,75.056046 
	C138.629456,75.228035 142.899948,75.069527 147.563568,74.936768 
	C149.269287,74.957764 150.581833,74.953011 152.253296,75.104523 
	C154.767868,75.132721 156.923538,75.004662 159.498520,74.909821 
	C161.869827,74.882744 163.821808,74.822433 165.949509,75.013824 
	C166.765991,75.148308 167.406738,75.031090 168.510910,74.950882 
	C174.576645,74.897675 180.178986,74.807472 186.000793,75.010498 
	C187.475922,74.928261 188.731583,74.552788 190.343201,74.248772 
	C194.430817,74.481392 198.162460,74.642555 202.092209,75.104492 
	C204.468002,77.047913 206.560257,77.939240 208.576218,74.817314 
	C210.291122,74.926720 211.616562,74.953598 213.285034,74.986565 
	C214.085373,74.995201 214.542694,74.997749 215.068298,75.359879 
	C217.051498,77.466316 218.798630,78.078728 220.332153,74.977066 
	C220.884720,74.927727 221.105148,74.901619 221.711029,74.914215 
	C223.386810,74.949165 224.677170,74.945419 226.205521,75.250870 
	C231.710373,75.661079 236.977219,75.762093 242.472839,75.703873 
	C243.468506,75.035873 244.235397,74.527100 245.089981,74.403259 
	C248.476685,74.820801 251.775681,74.853409 255.423309,74.899467 
	C256.461639,74.852287 257.151367,74.791656 258.120789,75.064941 
	C265.225800,75.931007 272.051086,76.463158 278.876373,76.995308 
	C278.897125,77.439407 278.917847,77.883499 278.452454,78.662811 
	C196.017822,78.996208 114.069328,78.994392 32.120838,78.992584 
z"/>
<path fill="#B8B8B8" opacity="1.000000" stroke="none" 
	d="
M32.082932,79.391327 
	C114.069328,78.994392 196.017822,78.996208 278.422729,78.995300 
	C278.903992,80.058815 278.928802,81.125038 278.918640,82.589790 
	C268.607513,82.658974 258.331665,82.057739 248.055054,82.044449 
	C181.469376,81.958344 114.883499,81.978554 48.297768,82.043190 
	C43.181644,82.048157 38.066113,82.662346 32.533306,82.990829 
	C32.092545,81.922218 32.068783,80.856140 32.082932,79.391327 
z"/>
<path fill="#BDBEBE" opacity="1.000000" stroke="none" 
	d="
M256.089691,68.987709 
	C263.380981,69.323654 270.672302,69.659599 278.420044,69.989479 
	C278.900177,71.375916 278.923889,72.768402 278.500458,74.567535 
	C271.326050,74.653908 264.598755,74.333641 257.751007,73.701447 
	C257.116943,71.922249 256.603333,70.454979 256.089691,68.987709 
z"/>
<path fill="#BCBCBC" opacity="1.000000" stroke="none" 
	d="
M257.871460,74.013374 
	C264.598755,74.333641 271.326050,74.653908 278.463806,74.983749 
	C278.899506,75.438644 278.924774,75.883980 278.913208,76.662308 
	C272.051086,76.463158 265.225800,75.931007 258.129944,74.887032 
	C257.859344,74.375206 257.871460,74.013374 257.871460,74.013374 
z"/>
<path fill="#D3D3D3" opacity="1.000000" stroke="none" 
	d="
M32.086361,51.423126 
	C48.500061,50.986870 64.858109,50.949364 81.215065,51.064800 
	C83.043724,51.077702 84.866272,51.958569 86.891594,53.235542 
	C87.026215,56.684559 86.960892,59.334946 86.454895,61.990112 
	C82.954948,61.621761 79.895668,61.248634 76.549805,60.619072 
	C70.129776,61.148945 65.971321,58.993107 64.886612,51.743294 
	C63.730198,58.006302 61.170357,61.303871 55.005692,60.214725 
	C54.540230,60.132492 53.844406,61.354099 52.773201,61.979027 
	C45.557957,62.650143 38.825176,63.311852 32.092392,63.973557 
	C32.047283,62.594597 32.002174,61.215637 31.909019,59.425446 
	C31.917444,56.631771 31.973915,54.249329 32.086361,51.423126 
z"/>
<path fill="#C4C4C4" opacity="1.000000" stroke="none" 
	d="
M32.049622,64.390213 
	C38.825176,63.311852 45.557957,62.650143 53.046806,62.143288 
	C55.520344,64.516945 60.288849,64.406593 58.447472,68.992126 
	C49.363861,68.991943 40.743282,68.988388 32.122707,68.984833 
	C32.084087,67.592178 32.045471,66.199532 32.049622,64.390213 
z"/>
<path fill="#BFBFBE" opacity="1.000000" stroke="none" 
	d="
M32.078808,69.384666 
	C40.743282,68.988388 49.363861,68.991943 58.370159,69.306557 
	C58.242878,70.765724 57.729870,71.913834 56.734943,73.043488 
	C48.209782,73.015022 40.166534,73.005013 32.123291,72.994995 
	C32.093830,71.924835 32.064369,70.854668 32.078808,69.384666 
z"/>
<path fill="#BDBDBD" opacity="1.000000" stroke="none" 
	d="
M32.083443,73.368698 
	C40.166534,73.005013 48.209782,73.015022 56.798119,73.285011 
	C57.574337,73.990456 57.805458,74.435936 58.036579,74.881409 
	C55.507095,75.254272 52.984577,75.878922 50.446724,75.949104 
	C44.646866,76.109459 38.839500,75.998581 32.578793,75.994980 
	C32.096130,75.242188 32.069862,74.492287 32.083443,73.368698 
z"/>
<path fill="#5C595B" opacity="1.000000" stroke="none" 
	d="
M165.773773,74.762131 
	C163.821808,74.822433 161.869827,74.882744 159.471146,74.467697 
	C159.024445,71.751434 159.024445,69.510536 159.024445,67.127075 
	C156.307190,67.127075 154.307053,67.127075 151.894394,67.127075 
	C151.894394,70.035378 151.894394,72.491814 151.894394,74.948257 
	C150.581833,74.953011 149.269287,74.957764 147.526138,74.546059 
	C147.027267,73.084869 146.958984,72.040146 146.957031,70.549042 
	C146.983429,67.397041 146.943497,64.691422 146.971130,61.545723 
	C147.054443,58.451767 147.070236,55.797886 147.086014,53.144005 
	C151.727600,53.120617 156.369171,53.097229 161.679062,53.414452 
	C163.468384,57.133152 164.589401,60.511242 165.345428,63.935116 
	C165.244873,67.574646 165.509323,71.168388 165.773773,74.762131 
M156.366486,62.228157 
	C157.580597,61.301476 158.794693,60.374790 160.008804,59.448109 
	C157.692337,58.381664 155.375870,57.315216 152.824387,56.140575 
	C151.647903,60.340599 151.585556,62.558628 156.366486,62.228157 
z"/>
<path fill="#5C5A5B" opacity="1.000000" stroke="none" 
	d="
M86.895569,61.985336 
	C86.960892,59.334946 87.026215,56.684559 87.084778,53.594860 
	C91.722176,53.128181 96.366318,53.100811 101.678986,53.414078 
	C103.468597,57.132980 104.589699,60.511246 105.345856,63.935371 
	C105.245331,67.574966 105.509743,71.168694 105.774155,74.762421 
	C103.822006,74.822769 101.869858,74.883110 99.470924,74.468208 
	C99.024139,71.765091 99.024139,69.537216 99.024139,67.245331 
	C96.329842,67.245331 94.321663,67.245331 91.894753,67.245331 
	C91.894753,70.078583 91.894753,72.513504 91.894753,74.948433 
	C90.581123,74.953094 89.267502,74.957748 87.500580,74.705933 
	C87.047295,74.449455 86.891838,73.999161 86.957924,73.601639 
	C86.978203,72.134148 86.932396,71.064171 86.951782,69.553497 
	C86.976517,66.736984 86.936043,64.361160 86.895569,61.985336 
M99.473900,58.081348 
	C97.188019,57.655308 94.902138,57.229267 92.356812,56.754871 
	C92.356812,59.006371 92.356812,60.382275 92.356812,62.274921 
	C95.228088,61.145897 99.570358,64.921242 99.473900,58.081348 
z"/>
<path fill="#5B5B5C" opacity="1.000000" stroke="none" 
	d="
M201.894104,74.803719 
	C198.162460,74.642555 194.430817,74.481392 190.064331,74.106247 
	C188.660904,72.923943 187.892303,71.955627 187.123825,70.599297 
	C188.710266,66.680611 190.691849,67.270401 193.061066,69.497704 
	C195.790909,72.064034 198.417130,71.895462 201.526245,68.203178 
	C199.069031,67.308937 197.052917,66.849533 195.321823,65.880829 
	C192.737350,64.434563 190.353653,62.629501 187.916153,60.584324 
	C187.917358,59.144485 187.886948,58.097401 187.970703,56.742340 
	C188.732483,55.324970 189.380112,54.215580 190.027740,53.106182 
	C192.683105,52.772350 195.338501,52.438522 198.546539,52.267300 
	C199.099213,52.429909 199.499359,52.641785 199.499359,52.641785 
	C199.499359,52.641785 199.952057,52.635159 199.952057,52.635159 
	C200.380569,52.811779 200.809097,52.988400 201.774292,53.525475 
	C203.636383,55.829628 207.286514,57.508190 202.759613,60.040176 
	C202.328217,60.024097 202.155716,60.057674 201.623352,59.996197 
	C200.472000,59.101131 199.810303,57.904079 198.858948,57.593094 
	C197.390152,57.112968 195.712967,57.093250 194.146805,57.202538 
	C193.711365,57.232922 192.962067,58.934093 193.021820,58.978745 
	C194.139328,59.813797 195.284302,60.711002 196.574020,61.189640 
	C197.942963,61.697666 199.469254,61.781689 201.168427,62.294907 
	C204.922089,63.941544 206.475204,66.406082 205.366180,70.475342 
	C204.075577,72.098076 202.984833,73.450897 201.894104,74.803719 
z"/>
<path fill="#57595B" opacity="1.000000" stroke="none" 
	d="
M125.783974,74.715042 
	C120.180740,74.805984 114.577515,74.896935 108.486511,74.499062 
	C107.947014,70.661209 107.895302,67.312164 107.899292,63.512299 
	C107.981972,59.743336 108.008957,56.425198 108.035934,53.107059 
	C113.372978,53.056534 118.710030,53.006012 124.535217,53.435329 
	C124.195541,54.967510 123.538406,56.654568 122.502510,56.933140 
	C120.645737,57.432472 118.527931,56.873249 116.585503,57.178398 
	C115.590561,57.334698 114.738983,58.403656 113.822617,59.060143 
	C114.698883,59.749619 115.491035,60.847702 116.467842,61.048817 
	C118.985619,61.567177 121.585083,61.688736 124.094810,62.373505 
	C120.799957,64.315636 117.562202,65.853081 113.808197,67.635666 
	C113.284523,69.618309 113.939377,71.312622 117.325012,71.026840 
	C118.970459,70.887955 120.656792,71.166191 122.290565,70.970810 
	C125.295212,70.611465 126.127083,72.061783 125.783974,74.715042 
z"/>
<path fill="#63605E" opacity="1.000000" stroke="none" 
	d="
M225.967529,74.941673 
	C224.677170,74.945419 223.386810,74.949165 221.661255,74.469330 
	C221.226074,71.213905 221.226074,68.442078 221.226074,65.459465 
	C218.471222,65.459465 216.406097,65.459465 214.358902,65.459465 
	C213.855682,68.840927 213.398849,71.910706 212.942017,74.980476 
	C211.616562,74.953598 210.291122,74.926720 208.573685,74.525703 
	C208.127853,73.766167 208.074005,73.380775 208.080933,72.541351 
	C208.114014,68.738403 208.086334,65.389481 208.132706,61.602482 
	C208.196548,58.552635 208.186371,55.940861 208.176178,53.329086 
	C209.795425,53.244598 211.414688,53.160107 213.397278,53.618443 
	C213.760620,56.270073 213.760620,58.378880 213.760620,60.622391 
	C216.531189,60.622391 218.742081,60.622391 221.175049,60.622391 
	C221.175049,57.950741 221.175049,55.637955 221.175049,53.325165 
	C222.510742,53.191967 223.846451,53.058769 225.603500,53.379288 
	C226.081299,54.886894 226.137756,55.940788 226.132904,57.406563 
	C226.112686,59.203018 226.153748,60.587601 226.136108,62.407623 
	C226.117584,64.889580 226.157776,66.936096 226.135849,69.397408 
	C226.116394,71.206665 226.159073,72.601135 226.136169,74.230377 
	C226.070587,74.465157 225.967529,74.941673 225.967529,74.941673 
z"/>
<path fill="#57595B" opacity="1.000000" stroke="none" 
	d="
M185.781311,74.717262 
	C180.178986,74.807472 174.576645,74.897675 168.486542,74.499069 
	C167.947052,70.661217 167.895325,67.312172 167.899292,63.512295 
	C167.981979,59.743328 168.008957,56.425186 168.035934,53.107048 
	C173.361526,53.055534 178.687134,53.004017 184.506104,53.387291 
	C184.978302,54.874470 184.957108,55.926853 184.485519,57.016300 
	C181.012741,57.121906 177.990356,57.190453 174.721451,57.235283 
	C174.089478,57.336987 173.939270,57.597874 173.916855,58.425503 
	C174.905731,59.617336 175.908264,60.758274 177.118500,61.056545 
	C179.394775,61.617542 181.790894,61.692135 184.077011,62.400249 
	C183.649796,66.747726 180.607086,64.796074 178.690765,65.199921 
	C176.678772,65.623932 173.672043,64.203171 173.770844,68.119522 
	C173.869843,72.044121 176.891022,70.559425 178.884872,70.778473 
	C181.162415,71.028687 183.468445,71.019684 185.770508,71.483635 
	C185.779724,72.801720 185.780518,73.759491 185.781311,74.717262 
z"/>
<path fill="#8D8C8D" opacity="1.000000" stroke="none" 
	d="
M257.751007,73.701447 
	C257.871460,74.013374 257.859344,74.375206 257.850220,74.553116 
	C257.151367,74.791656 256.461639,74.852287 255.253113,74.610031 
	C251.609207,70.203941 248.341080,70.920509 245.002274,74.018326 
	C244.235397,74.527100 243.468506,75.035873 242.434586,75.398224 
	C242.149063,74.839035 242.130569,74.426270 242.237915,73.703110 
	C242.878220,71.923431 243.392715,70.454147 243.973328,68.663780 
	C243.607147,67.029060 243.496857,65.440948 242.666412,64.466652 
	C241.446091,63.034904 239.711395,62.041595 238.471100,60.609581 
	C241.645355,58.888939 246.473648,62.626823 247.918991,56.644825 
	C248.384628,54.935787 248.760239,53.574051 249.135849,52.212318 
	C249.528824,52.193733 249.921799,52.175148 250.606247,52.197697 
	C252.395111,59.579151 252.395111,59.579151 261.559937,60.623016 
	C260.228760,62.389030 258.513916,63.803062 257.058960,65.447098 
	C256.412140,66.177986 256.289490,67.372780 256.009308,68.672363 
	C256.603333,70.454979 257.116943,71.922249 257.751007,73.701447 
z"/>
<path fill="#595A5C" opacity="1.000000" stroke="none" 
	d="
M133.782455,74.725555 
	C132.188950,74.774544 130.595428,74.823540 128.615509,74.352463 
	C128.101288,69.875977 127.973488,65.919556 127.898613,61.521378 
	C127.981758,58.417847 128.011993,55.756065 128.042221,53.094284 
	C133.053345,53.041580 138.064484,52.988876 143.615143,53.311111 
	C144.564316,56.059616 144.031876,57.495411 141.154694,57.126842 
	C139.538055,56.919754 137.810623,56.835667 136.251175,57.200607 
	C135.308502,57.421211 134.591873,58.607780 133.773682,59.360336 
	C134.549911,60.168831 135.229568,61.520424 136.121384,61.679028 
	C138.360580,62.077274 140.695724,61.936127 143.007950,62.438919 
	C142.254730,69.312431 136.488464,63.888805 133.964432,67.084557 
	C133.964432,68.070129 133.964432,69.537460 133.896790,71.373291 
	C133.813599,72.736382 133.798035,73.730972 133.782455,74.725555 
z"/>
<path fill="#D5D5D6" opacity="1.000000" stroke="none" 
	d="
M248.848221,51.881691 
	C248.760239,53.574051 248.384628,54.935787 247.466339,56.647419 
	C240.013855,56.996441 233.104019,56.995560 226.194199,56.994682 
	C226.137756,55.940788 226.081299,54.886894 226.005676,53.437042 
	C226.762131,52.367516 227.539337,51.109814 228.313126,51.111919 
	C235.062622,51.130299 241.811523,51.374168 248.848221,51.881691 
z"/>
<path fill="#D3D3D3" opacity="1.000000" stroke="none" 
	d="
M142.992386,62.011276 
	C140.695724,61.936127 138.360580,62.077274 136.121384,61.679028 
	C135.229568,61.520424 134.549911,60.168831 133.773682,59.360336 
	C134.591873,58.607780 135.308502,57.421211 136.251175,57.200607 
	C137.810623,56.835667 139.538055,56.919754 141.154694,57.126842 
	C144.031876,57.495411 144.564316,56.059616 144.082306,53.326744 
	C144.916000,52.849037 145.822098,52.730629 146.907104,52.878113 
	C147.070236,55.797886 147.054443,58.451767 146.580322,61.551201 
	C145.078781,62.001598 144.035583,62.006439 142.992386,62.011276 
z"/>
<path fill="#D3D3D3" opacity="1.000000" stroke="none" 
	d="
M127.859619,52.830978 
	C128.011993,55.756065 127.981758,58.417847 127.529350,61.538017 
	C126.122086,61.987209 125.137001,61.978012 124.151917,61.968815 
	C121.585083,61.688736 118.985619,61.567177 116.467842,61.048817 
	C115.491035,60.847702 114.698883,59.749619 113.822617,59.060143 
	C114.738983,58.403656 115.590561,57.334698 116.585503,57.178398 
	C118.527931,56.873249 120.645737,57.432472 122.502510,56.933140 
	C123.538406,56.654568 124.195541,54.967510 124.999352,53.480743 
	C125.875900,52.886765 126.776459,52.727219 127.859619,52.830978 
z"/>
<path fill="#D3D3D3" opacity="1.000000" stroke="none" 
	d="
M184.137192,61.968964 
	C181.790894,61.692135 179.394775,61.617542 177.118500,61.056545 
	C175.908264,60.758274 174.905731,59.617336 174.109100,58.352600 
	C174.656143,57.709808 174.842545,57.513336 174.967972,57.258995 
	C177.990356,57.190453 181.012741,57.121906 184.772202,56.799538 
	C185.671631,55.362473 185.833984,54.179226 185.996338,52.995983 
	C187.109482,51.432598 188.214310,49.811230 189.977814,52.768982 
	C189.380112,54.215580 188.732483,55.324970 187.724091,56.988987 
	C187.254059,58.711502 187.144791,59.879398 186.836182,61.301018 
	C185.803619,61.692818 184.970398,61.830891 184.137192,61.968964 
z"/>
<path fill="#D1D2D2" opacity="1.000000" stroke="none" 
	d="
M221.066727,52.925316 
	C221.175049,55.637955 221.175049,57.950741 221.175049,60.622391 
	C218.742081,60.622391 216.531189,60.622391 213.760620,60.622391 
	C213.760620,58.378880 213.760620,56.270073 213.792572,53.728989 
	C215.839630,49.683266 218.299576,50.184566 221.066727,52.925316 
z"/>
<path fill="#D1D2D2" opacity="1.000000" stroke="none" 
	d="
M208.070679,52.935692 
	C208.186371,55.940861 208.196548,58.552635 207.735550,61.591900 
	C205.849075,61.376202 204.433807,60.733017 203.018524,60.089828 
	C207.286514,57.508190 203.636383,55.829628 202.104874,53.633873 
	C203.436874,49.604202 205.615372,50.454266 208.070679,52.935692 
z"/>
<path fill="#D3D3D3" opacity="1.000000" stroke="none" 
	d="
M107.965668,52.740696 
	C108.008957,56.425198 107.981972,59.743336 107.543503,63.521671 
	C106.658279,63.951080 106.184547,63.920292 105.710808,63.889507 
	C104.589699,60.511246 103.468597,57.132980 102.137489,53.472336 
	C103.610390,50.676151 105.519211,49.815334 107.965668,52.740696 
z"/>
<path fill="#D3D3D3" opacity="1.000000" stroke="none" 
	d="
M167.965668,52.740673 
	C168.008957,56.425186 167.981979,59.743328 167.543457,63.521652 
	C166.658081,63.951000 166.184250,63.920162 165.710434,63.889328 
	C164.589401,60.511242 163.468384,57.133152 162.137360,53.472694 
	C163.610123,50.676064 165.518982,49.815380 167.965668,52.740673 
z"/>
<path fill="#CDCFCE" opacity="1.000000" stroke="none" 
	d="
M185.731262,53.000179 
	C185.833984,54.179226 185.671631,55.362473 185.222595,56.762482 
	C184.957108,55.926853 184.978302,54.874470 184.968185,53.428345 
	C185.113327,53.024529 185.289780,53.014450 185.731262,53.000179 
z"/>
<path fill="#D1D2D2" opacity="1.000000" stroke="none" 
	d="
M199.805359,52.470154 
	C199.952057,52.635159 199.499359,52.641785 199.499359,52.641785 
	C199.499359,52.641785 199.099213,52.429909 198.959671,52.250565 
	C199.129013,52.044056 199.408524,52.122032 199.805359,52.470154 
z"/>
<path fill="#8D8C8D" opacity="1.000000" stroke="none" 
	d="
M58.287125,74.783142 
	C57.805458,74.435936 57.574337,73.990456 57.280037,73.303467 
	C57.729870,71.913834 58.242878,70.765724 58.833191,69.303185 
	C60.288849,64.406593 55.520344,64.516945 53.529270,62.133873 
	C53.844406,61.354099 54.540230,60.132492 55.005692,60.214725 
	C61.170357,61.303871 63.730198,58.006302 64.886612,51.743294 
	C65.971321,58.993107 70.129776,61.148945 76.318001,60.854588 
	C74.995682,62.637512 73.423561,63.782536 72.309906,65.270668 
	C71.564728,66.266426 71.470909,67.749626 71.095726,69.363831 
	C71.469627,70.828941 71.833427,71.944916 72.146851,73.362595 
	C72.027840,74.065224 71.959213,74.466156 71.890587,74.867081 
	C71.495071,74.887680 71.099564,74.908279 70.234169,74.638596 
	C66.646248,70.230843 63.368919,70.883682 60.008579,74.022560 
	C59.518276,74.243332 59.027973,74.464104 58.287125,74.783142 
z"/>
<path fill="#BDBDBD" opacity="1.000000" stroke="none" 
	d="
M124.094810,62.373505 
	C125.137001,61.978012 126.122086,61.987209 127.476433,61.979767 
	C127.973488,65.919556 128.101288,69.875977 128.222672,74.273178 
	C127.528984,74.895752 126.841713,75.077538 125.969208,74.987183 
	C126.127083,72.061783 125.295212,70.611465 122.290565,70.970810 
	C120.656792,71.166191 118.970459,70.887955 117.325012,71.026840 
	C113.939377,71.312622 113.284523,69.618309 113.808197,67.635666 
	C117.562202,65.853081 120.799957,64.315636 124.094810,62.373505 
z"/>
<path fill="#BDBEBE" opacity="1.000000" stroke="none" 
	d="
M213.285034,74.986565 
	C213.398849,71.910706 213.855682,68.840927 214.358902,65.459465 
	C216.406097,65.459465 218.471222,65.459465 221.226074,65.459465 
	C221.226074,68.442078 221.226074,71.213905 221.275833,74.430626 
	C221.105148,74.901619 220.884720,74.927727 219.915482,74.976913 
	C217.777786,75.000099 216.388885,75.000206 215.000000,75.000305 
	C214.542694,74.997749 214.085373,74.995201 213.285034,74.986565 
z"/>
<path fill="#BDBDBD" opacity="1.000000" stroke="none" 
	d="
M134.070709,75.056046 
	C133.798035,73.730972 133.813599,72.736382 134.362488,71.371704 
	C138.894104,70.999550 142.892410,70.997482 146.890701,70.995407 
	C146.958984,72.040146 147.027267,73.084869 147.132996,74.520309 
	C142.899948,75.069527 138.629456,75.228035 134.070709,75.056046 
z"/>
<path fill="#BDBDBD" opacity="1.000000" stroke="none" 
	d="
M92.253632,75.104683 
	C91.894753,72.513504 91.894753,70.078583 91.894753,67.245331 
	C94.321663,67.245331 96.329842,67.245331 99.024139,67.245331 
	C99.024139,69.537216 99.024139,71.765091 99.051559,74.434967 
	C96.923492,75.004959 94.768005,75.132950 92.253632,75.104683 
z"/>
<path fill="#BDBDBD" opacity="1.000000" stroke="none" 
	d="
M152.253296,75.104515 
	C151.894394,72.491814 151.894394,70.035378 151.894394,67.127075 
	C154.307053,67.127075 156.307190,67.127075 159.024445,67.127075 
	C159.024445,69.510536 159.024445,71.751434 159.051819,74.434464 
	C156.923538,75.004662 154.767868,75.132721 152.253296,75.104515 
z"/>
<path fill="#BCBCBC" opacity="1.000000" stroke="none" 
	d="
M242.112076,74.013496 
	C242.130569,74.426270 242.149063,74.839035 242.205811,75.557457 
	C236.977219,75.762093 231.710373,75.661079 226.205521,75.250870 
	C225.967529,74.941673 226.070587,74.465157 226.587631,74.231812 
	C232.107147,74.003479 237.109604,74.008484 242.112076,74.013496 
z"/>
<path fill="#BDBDBD" opacity="1.000000" stroke="none" 
	d="
M105.345856,63.935371 
	C106.184547,63.920292 106.658279,63.951080 107.487801,63.972496 
	C107.895302,67.312164 107.947014,70.661209 108.023102,74.462051 
	C107.406815,75.031166 106.766167,75.148476 105.949844,75.014107 
	C105.509743,71.168694 105.245331,67.574966 105.345856,63.935371 
z"/>
<path fill="#BCBCBC" opacity="1.000000" stroke="none" 
	d="
M245.089981,74.403259 
	C248.341080,70.920509 251.609207,70.203941 254.904480,74.596573 
	C251.775681,74.853409 248.476685,74.820801 245.089981,74.403259 
z"/>
<path fill="#BDBDBD" opacity="1.000000" stroke="none" 
	d="
M165.345428,63.935116 
	C166.184250,63.920162 166.658081,63.951000 167.487747,63.972481 
	C167.895325,67.312172 167.947052,70.661217 168.023132,74.462067 
	C167.406738,75.031090 166.765991,75.148308 165.949493,75.013824 
	C165.509323,71.168388 165.244873,67.574646 165.345428,63.935116 
z"/>
<path fill="#BDBDBD" opacity="1.000000" stroke="none" 
	d="
M60.195541,74.354660 
	C63.368919,70.883682 66.646248,70.230843 69.937180,74.642731 
	C66.867546,74.853683 63.625027,74.770226 60.195541,74.354660 
z"/>
<path fill="#BDBDBD" opacity="1.000000" stroke="none" 
	d="
M72.184792,75.182655 
	C71.959213,74.466156 72.027840,74.065224 72.504112,73.530098 
	C77.571777,73.596985 82.231812,73.798073 86.891838,73.999161 
	C86.891838,73.999161 87.047295,74.449455 87.107132,74.679840 
	C82.270981,75.106224 77.374985,75.302223 72.184792,75.182655 
z"/>
<path fill="#BCBCBC" opacity="1.000000" stroke="none" 
	d="
M208.020172,72.995377 
	C208.074005,73.380775 208.127853,73.766167 208.184235,74.443169 
	C206.560257,77.939240 204.468002,77.047913 202.092209,75.104492 
	C202.984833,73.450897 204.075577,72.098076 205.492386,70.881149 
	C206.552368,71.676491 207.286270,72.335938 208.020172,72.995377 
z"/>
<path fill="#BDBDBD" opacity="1.000000" stroke="none" 
	d="
M186.000793,75.010498 
	C185.780518,73.759491 185.779724,72.801720 186.110168,71.439896 
	C186.668823,71.019669 186.896271,71.003494 187.123703,70.987312 
	C187.892303,71.955627 188.660904,72.923943 189.708374,74.034790 
	C188.731583,74.552788 187.475922,74.928261 186.000793,75.010498 
z"/>
<path fill="#BCBCBC" opacity="1.000000" stroke="none" 
	d="
M215.068298,75.359879 
	C216.388885,75.000206 217.777786,75.000099 219.583344,75.000153 
	C218.798630,78.078728 217.051498,77.466316 215.068298,75.359879 
z"/>
<path fill="#C3C3C3" opacity="1.000000" stroke="none" 
	d="
M71.085625,69.014709 
	C71.470909,67.749626 71.564728,66.266426 72.309906,65.270668 
	C73.423561,63.782536 74.995682,62.637512 76.604584,61.111023 
	C79.895668,61.248634 82.954948,61.621761 86.454895,61.990112 
	C86.936043,64.361160 86.976517,66.736984 86.495308,69.555161 
	C81.010963,69.669914 76.048294,69.342308 71.085625,69.014709 
z"/>
<path fill="#C0C1C1" opacity="1.000000" stroke="none" 
	d="
M146.957031,70.549034 
	C142.892410,70.997482 138.894104,70.999550 134.430115,71.003204 
	C133.964432,69.537460 133.964432,68.070129 133.964432,67.084557 
	C136.488464,63.888805 142.254730,69.312431 143.007950,62.438919 
	C144.035583,62.006439 145.078781,62.001598 146.512787,61.991283 
	C146.943497,64.691422 146.983429,67.397041 146.957031,70.549034 
z"/>
<path fill="#CCCECD" opacity="1.000000" stroke="none" 
	d="
M155.926437,62.231403 
	C151.585556,62.558628 151.647903,60.340599 152.824387,56.140575 
	C155.375870,57.315216 157.692337,58.381664 160.008804,59.448109 
	C158.794693,60.374790 157.580597,61.301476 155.926437,62.231403 
z"/>
<path fill="#BDBEBE" opacity="1.000000" stroke="none" 
	d="
M71.095726,69.363831 
	C76.048294,69.342308 81.010963,69.669914 86.430115,69.995857 
	C86.932396,71.064171 86.978203,72.134148 86.957924,73.601639 
	C82.231812,73.798073 77.571777,73.596985 72.554489,73.228394 
	C71.833427,71.944916 71.469627,70.828941 71.095726,69.363831 
z"/>
<path fill="#CCCECD" opacity="1.000000" stroke="none" 
	d="
M99.690674,58.450233 
	C99.570358,64.921242 95.228088,61.145897 92.356812,62.274921 
	C92.356812,60.382275 92.356812,59.006371 92.356812,56.754871 
	C94.902138,57.229267 97.188019,57.655308 99.690674,58.450233 
z"/>
<path fill="#B9B9B9" opacity="1.000000" stroke="none" 
	d="
M187.123825,70.599297 
	C186.896271,71.003494 186.668823,71.019669 186.101746,71.079590 
	C183.468445,71.019684 181.162415,71.028687 178.884872,70.778473 
	C176.891022,70.559425 173.869843,72.044121 173.770844,68.119522 
	C173.672043,64.203171 176.678772,65.623932 178.690765,65.199921 
	C180.607086,64.796074 183.649796,66.747726 184.077011,62.400246 
	C184.970398,61.830891 185.803619,61.692818 187.048264,61.283821 
	C187.459702,61.012897 187.884537,60.977081 187.884537,60.977081 
	C190.353653,62.629501 192.737350,64.434563 195.321823,65.880829 
	C197.052917,66.849533 199.069031,67.308937 201.526245,68.203178 
	C198.417130,71.895462 195.790909,72.064034 193.061066,69.497704 
	C190.691849,67.270401 188.710266,66.680611 187.123825,70.599297 
z"/>
<path fill="#BEC0C2" opacity="1.000000" stroke="none" 
	d="
M208.080933,72.541351 
	C207.286270,72.335938 206.552368,71.676491 205.692245,70.611237 
	C206.475204,66.406082 204.922089,63.941544 201.415894,62.130135 
	C201.608902,61.177979 201.796051,60.634613 201.983200,60.091248 
	C202.155716,60.057674 202.328217,60.024097 202.759613,60.040176 
	C204.433807,60.733017 205.849075,61.376202 207.661514,62.029972 
	C208.086334,65.389481 208.114014,68.738403 208.080933,72.541351 
z"/>
<path fill="#D1D2D2" opacity="1.000000" stroke="none" 
	d="
M201.623352,59.996197 
	C201.796051,60.634613 201.608902,61.177979 201.174286,61.886108 
	C199.469254,61.781689 197.942963,61.697666 196.574020,61.189640 
	C195.284302,60.711002 194.139328,59.813797 193.021820,58.978745 
	C192.962067,58.934093 193.711365,57.232922 194.146805,57.202538 
	C195.712967,57.093250 197.390152,57.112968 198.858948,57.593094 
	C199.810303,57.904079 200.472000,59.101131 201.623352,59.996197 
z"/>
<path fill="#CDCFCE" opacity="1.000000" stroke="none" 
	d="
M187.916153,60.584324 
	C187.884537,60.977081 187.459702,61.012897 187.247620,61.030094 
	C187.144791,59.879398 187.254059,58.711502 187.609924,57.296967 
	C187.886948,58.097401 187.917358,59.144485 187.916153,60.584324 
z"/>
<path fill="#C5C5C4" opacity="1.000000" stroke="none" 
	d="
M238.195831,60.861496 
	C239.711395,62.041595 241.446091,63.034904 242.666412,64.466652 
	C243.496857,65.440948 243.607147,67.029060 243.514984,68.668930 
	C237.392990,68.990982 231.795486,68.986801 226.197968,68.982620 
	C226.157776,66.936096 226.117584,64.889580 226.580322,62.416740 
	C230.787460,61.614117 234.491638,61.237808 238.195831,60.861496 
z"/>
<path fill="#D3D3D3" opacity="1.000000" stroke="none" 
	d="
M238.471100,60.609581 
	C234.491638,61.237808 230.787460,61.614117 226.639038,61.981300 
	C226.153748,60.587601 226.112686,59.203018 226.132904,57.406563 
	C233.104019,56.995560 240.013855,56.996441 247.376312,56.994724 
	C246.473648,62.626823 241.645355,58.888939 238.471100,60.609581 
z"/>
<path fill="#BEBEBD" opacity="1.000000" stroke="none" 
	d="
M226.135849,69.397415 
	C231.795486,68.986801 237.392990,68.990982 243.448853,68.990021 
	C243.392715,70.454147 242.878220,71.923431 242.237915,73.703110 
	C237.109604,74.008484 232.107147,74.003479 226.653214,73.997032 
	C226.159073,72.601135 226.116394,71.206665 226.135849,69.397415 
z"/>
<path fill="#CDCFCE" opacity="1.000000" stroke="none" 
	d="
M174.721451,57.235283 
	C174.842545,57.513336 174.656143,57.709808 174.216522,57.921326 
	C173.939270,57.597874 174.089478,57.336987 174.721451,57.235283 
z"/>
</svg>